<?xml version="1.0" encoding="iso-8859-1"?>
<!-- Generator: Adobe Illustrator 19.0.0, SVG Export Plug-In . SVG Version: 6.00 Build 0)  -->
<svg version="1.1" id="Capa_1" xmlns="http://www.w3.org/2000/svg" xmlns:xlink="http://www.w3.org/1999/xlink" x="0px" y="0px"
	 viewBox="0 0 512.001 512.001" style="enable-background:new 0 0 512.001 512.001;" xml:space="preserve">
<g>
	<g>
		<g>
			<circle cx="299" cy="297" r="20"/>
			<path d="M409.589,289.557l-109.803,109.56c-2.332,2.327-4.052,5.194-5.01,8.346l-23.913,78.725
				c-2.12,6.978-0.273,14.558,4.821,19.779c3.817,3.911,9,6.034,14.317,6.034c1.78,0,3.575-0.239,5.338-0.727l80.725-22.362
				c3.322-0.921,6.35-2.683,8.79-5.119l109.573-109.366c23.394-23.395,23.394-61.459,0-84.854
				C471.034,266.181,432.969,266.181,409.589,289.557z M360.32,451.768l-40.612,11.25l11.885-39.128l74.089-73.925l28.289,28.289
				L360.32,451.768z M466.158,346.129l-3.875,3.867l-28.285-28.285l3.862-3.853c7.798-7.799,20.486-7.799,28.284,0
				C473.94,325.656,473.94,338.344,466.158,346.129z"/>
			<circle cx="212" cy="384" r="20"/>
			<circle cx="212" cy="297" r="20"/>
			<circle cx="212" cy="210" r="20"/>
			<circle cx="125" cy="297" r="20"/>
			<circle cx="125" cy="384" r="20"/>
			<circle cx="125" cy="210" r="20"/>
			<circle cx="386" cy="210" r="20"/>
			<path d="M432,40h-26V20c0-11.046-8.954-20-20-20c-11.046,0-20,8.954-20,20v20h-91V20c0-11.046-8.954-20-20-20
				c-11.046,0-20,8.954-20,20v20h-90V20c0-11.046-8.954-20-20-20s-20,8.954-20,20v20H80C35.888,40,0,75.888,0,120v312
				c0,44.112,35.888,80,80,80h122c11.046,0,20-8.954,20-20c0-11.046-8.954-20-20-20H80c-22.056,0-40-17.944-40-40V120
				c0-22.056,17.944-40,40-40h25v20c0,11.046,8.954,20,20,20s20-8.954,20-20V80h90v20c0,11.046,8.954,20,20,20s20-8.954,20-20V80h91
				v20c0,11.046,8.954,20,20,20c11.046,0,20-8.954,20-20V80h26c22.056,0,40,17.944,40,40v90c0,11.046,8.954,20,20,20
				c11.046,0,20-8.954,20-20v-90C512,75.888,476.114,40,432,40z"/>
			<circle cx="299" cy="210" r="20"/>
		</g>
	</g>
</g>
<g>
</g>
<g>
</g>
<g>
</g>
<g>
</g>
<g>
</g>
<g>
</g>
<g>
</g>
<g>
</g>
<g>
</g>
<g>
</g>
<g>
</g>
<g>
</g>
<g>
</g>
<g>
</g>
<g>
</g>
</svg>
